<svg width="48" height="48" viewBox="0 0 48 48" fill="none" xmlns="http://www.w3.org/2000/svg">
<g filter="url(#filter0_d_558_311)">
<rect x="4" width="40" height="40" rx="20" fill="#002B45" shape-rendering="crispEdges"/>
<g clip-path="url(#clip0_558_311)">
<path fill-rule="evenodd" clip-rule="evenodd" d="M22.248 20.9517L19.9326 23.6032C19.744 23.8422 19.742 23.8869 19.5352 24.1028L16 28.2461L17.349 28.2423L22.479 22.1956C22.8238 21.7828 22.4545 22.0357 22.9736 21.8068C23.1966 22.3781 26.6547 27.3037 27.2854 28.2185L32 28.235L28.7881 23.5238C27.6879 21.9666 26.5978 20.3462 25.4976 18.7861L29.9411 13.5611C30.2404 13.241 31.2134 11.9656 31.409 11.8303L30.0556 11.7578C29.8075 12.2865 26.7884 15.6024 26.2455 16.2445L25.0146 17.8181C24.5111 17.5352 22.1536 13.904 21.7535 13.3134C21.5012 12.941 20.9202 12.1635 20.75 11.7682H16.016C16.8705 13.2783 21.8892 20.1637 22.2479 20.9517H22.248ZM27.8922 27.1907L29.9486 27.1869C29.8072 26.7248 23.4458 17.6063 22.6174 16.4057C22.208 15.8123 21.7719 15.2044 21.3679 14.5915C21.0272 14.0747 20.4296 13.1606 20.1289 12.8237L18.061 12.822C18.2102 13.2355 18.9228 14.1993 19.1928 14.5976L22.9556 20.0269C24.6295 22.4188 26.2001 24.928 27.8923 27.1906L27.8922 27.1907Z" fill="white"/>
</g>
</g>
<defs>
<filter id="filter0_d_558_311" x="0" y="0" width="48" height="48" filterUnits="userSpaceOnUse" color-interpolation-filters="sRGB">
<feFlood flood-opacity="0" result="BackgroundImageFix"/>
<feColorMatrix in="SourceAlpha" type="matrix" values="0 0 0 0 0 0 0 0 0 0 0 0 0 0 0 0 0 0 127 0" result="hardAlpha"/>
<feOffset dy="4"/>
<feGaussianBlur stdDeviation="2"/>
<feComposite in2="hardAlpha" operator="out"/>
<feColorMatrix type="matrix" values="0 0 0 0 0 0 0 0 0 0 0 0 0 0 0 0 0 0 0.25 0"/>
<feBlend mode="normal" in2="BackgroundImageFix" result="effect1_dropShadow_558_311"/>
<feBlend mode="normal" in="SourceGraphic" in2="effect1_dropShadow_558_311" result="shape"/>
</filter>
<clipPath id="clip0_558_311">
<rect width="14" height="14" fill="white" transform="matrix(1 0 0 -1 17 27)"/>
</clipPath>
</defs>
</svg>
